PathFileType	4	(X/Y/Z)	C:/Git/opensim_tutorial/tutorials/repeated_sprinting/Simulations/PC013/markers.trc	
DataRate	CameraRate	NumFrames	NumMarkers	Units	OrigDataRate	OrigDataStartFrame	OrigNumFrames	
100.00	100.00	4	49	mm	100.00	3052	302	
Frame#	Time	RASIS			LASIS			RPSIS			LPSIS			RTH1			RTH2			RTH3			RTH4			LTH1			LTH2			LTH3			LTH4			RLK			LLK			RSK1			RSK2			RSK3			RSK4			LSK1			LSK2			LSK3			LSK4			RLA			RMA			RHEE			RPCA			RLCA			RSTL			RP1MT			RD1MT			RP5MT			RD5MT			RTOE			RHLX			LLA			LMA			LHEE			LPCA			LLCA			LSTL			LP1MT			LP5MT			LD5MT			LTOE			RAC			LAC			C7			STRN1			STRN2			
		X1	Y1	Z1	X2	Y2	Z2	X3	Y3	Z3	X4	Y4	Z4	X5	Y5	Z5	X6	Y6	Z6	X7	Y7	Z7	X8	Y8	Z8	X9	Y9	Z9	X10	Y10	Z10	X11	Y11	Z11	X12	Y12	Z12	X13	Y13	Z13	X14	Y14	Z14	X15	Y15	Z15	X16	Y16	Z16	X17	Y17	Z17	X18	Y18	Z18	X19	Y19	Z19	X20	Y20	Z20	X21	Y21	Z21	X22	Y22	Z22	X23	Y23	Z23	X24	Y24	Z24	X25	Y25	Z25	X26	Y26	Z26	X27	Y27	Z27	X28	Y28	Z28	X29	Y29	Z29	X30	Y30	Z30	X31	Y31	Z31	X32	Y32	Z32	X33	Y33	Z33	X34	Y34	Z34	X35	Y35	Z35	X36	Y36	Z36	X37	Y37	Z37	X38	Y38	Z38	X39	Y39	Z39	X40	Y40	Z40	X41	Y41	Z41	X42	Y42	Z42	X43	Y43	Z43	X44	Y44	Z44	X45	Y45	Z45	X46	Y46	Z46	X47	Y47	Z47	X48	Y48	Z48	X49	Y49	Z49	

265	2.640	-789.84308	113.70029	790.05261	-729.69696	-96.43660	787.64960	-601.63110	107.39888	814.95673	-575.81305	9.88126	817.13300	-835.21710	122.66574	558.77576	-855.43762	94.61420	507.82104	-900.44507	62.36470	506.55505	-882.18805	69.83849	567.52753	-699.04779	-138.85573	531.35327	-718.60400	-130.27197	454.41779	-759.87042	-130.39201	496.89209	-745.85510	-135.99789	553.66553	-935.82324	15.33932	396.71326	-763.13544	-119.95347	327.57086	-814.59259	126.80740	234.47112	-880.05603	103.24889	214.26709	-840.22888	134.03615	203.65500	-824.44641	145.64885	169.39090	-595.14923	-114.01483	200.64685	-633.69714	-113.57365	210.39824	-640.88538	-123.09093	248.87289	-618.31378	-110.13705	279.63126	-800.49976	185.16916	76.51859	-795.30414	104.42434	46.32515	-726.08228	178.55544	34.47153	-745.10858	162.96011	68.26483	-772.60767	199.49471	44.50738	-749.14410	135.67314	23.23067	-849.40161	106.17687	39.57041	-888.05042	96.71114	19.50664	-836.86584	204.23705	29.37213	-888.51337	202.14958	28.06580	-894.05743	147.53860	52.85737	-921.87677	94.08672	16.18500	-432.80087	-90.98731	121.06854	-477.62979	-38.06973	66.39278	-396.53934	-19.65328	116.86012	-425.98462	-28.24182	131.34193	-393.83072	-66.67822	113.18475	-426.28238	-12.55132	86.58044	-502.58557	-84.34635	52.27776	-413.34344	-131.03738	64.66312	-435.05762	-171.88541	43.32520	-499.91052	-141.34785	61.33333	-705.76740	199.70477	1220.61169	-650.31818	-142.18501	1251.28540	-649.56195	45.17029	1296.61145	-791.47308	21.72818	1232.55554	-811.23456	8.33383	1178.63574 
266	2.650	-797.84125	113.51619	790.09979	-734.08069	-95.95963	788.48358	-609.49908	110.27180	816.29370	-582.36548	13.41265	817.74738	-841.51050	123.07251	558.26038	-860.83789	95.28751	506.84869	-905.70758	62.88746	504.73459	-888.44086	70.04406	566.11072	-702.66815	-138.53348	532.37347	-722.58789	-130.63487	455.48972	-763.76056	-131.93088	498.13159	-749.47107	-136.86700	554.72174	-938.56250	18.13147	393.07547	-768.73950	-122.20736	329.21164	-816.01459	127.21863	233.50517	-881.38074	103.80363	212.72963	-841.54370	134.52574	202.48953	-825.39844	146.19919	168.24896	-600.26538	-113.52411	203.42889	-638.83917	-113.74609	212.96901	-646.07910	-123.29358	251.49535	-624.00452	-109.67300	282.28253	-800.59656	185.75941	76.64716	-795.31586	104.66512	46.17786	-725.87817	179.00900	34.87755	-745.33112	163.14854	68.60591	-772.57587	199.77048	44.70260	-749.02771	135.97765	23.31968	-849.28168	106.39374	39.57443	-887.86261	96.88190	19.47196	-836.73969	204.50937	29.32091	-888.41205	202.41452	27.90052	-893.83447	147.81540	52.84327	-921.71948	94.23441	16.18650	-437.88406	-87.79360	124.88440	-483.19885	-35.98192	69.51156	-403.47934	-15.39709	121.26234	-432.87784	-24.89950	135.27147	-399.52386	-62.01118	117.33699	-432.90240	-8.92780	90.15501	-506.41116	-82.94404	54.31421	-416.36560	-127.01526	68.82713	-436.48587	-168.39842	46.91609	-502.65082	-139.68576	63.06877	-713.16272	203.02615	1220.74854	-656.75543	-138.98636	1251.45630	-656.31555	48.31094	1297.19922	-798.34283	24.91339	1233.47876	-818.31274	11.30859	1179.71594 
267	2.660	-805.62054	113.44695	790.40710	-738.74054	-95.50141	789.62628	-617.76483	113.32153	817.02991	-588.88513	16.55566	819.11566	-846.63269	123.30386	557.26984	-864.79877	96.15864	505.15936	-909.83948	64.27670	501.38019	-894.24225	71.23283	563.48938	-706.81824	-138.27690	533.91626	-726.97540	-131.01379	457.06030	-768.01935	-133.27643	499.73557	-753.31653	-137.20052	556.11975	-940.54321	20.84476	389.89334	-774.91504	-124.49722	331.35260	-817.42206	127.22182	232.83676	-882.73761	104.36874	211.21126	-842.59363	134.82405	201.55946	-826.09668	146.56427	167.59265	-605.81769	-113.36321	206.47673	-644.52759	-114.05337	215.77724	-651.81946	-123.60904	254.29645	-630.24036	-109.48843	285.22739	-801.07550	185.97995	76.25580	-795.33142	104.84649	46.16035	-725.83411	179.30133	35.21865	-745.38818	163.45802	68.91550	-772.66772	199.95636	44.81746	-748.95416	136.30360	23.60277	-849.19635	106.43981	39.52283	-887.70209	96.97741	19.49517	-836.68658	204.70651	29.26611	-888.34229	202.63699	27.78263	-893.77710	147.98764	52.70618	-921.57483	94.29224	16.12940	-443.53964	-84.50323	128.81055	-489.11136	-33.95110	72.81009	-410.86621	-11.47216	125.87358	-440.08618	-21.59199	139.43524	-405.66629	-58.07098	121.95337	-439.89166	-5.69926	93.96713	-510.67401	-81.32536	56.56625	-420.30643	-122.91898	73.26002	-438.66650	-164.93269	51.06879	-505.77567	-137.98109	64.66611	-721.20959	206.00241	1221.22485	-663.12775	-135.90297	1252.20593	-663.28406	51.66467	1297.96985	-805.19977	27.57908	1234.99097	-825.17902	13.80892	1181.04236 
268	2.670	-813.14301	113.76973	791.01007	-743.50238	-94.57803	790.99438	-624.90704	115.40749	819.36749	-595.25793	19.47245	820.72809	-850.98291	123.65009	556.00079	-867.67523	97.11554	503.04672	-913.00342	65.88094	497.64673	-899.12903	71.85075	560.03107	-711.76172	-138.22348	535.89575	-732.12921	-131.66249	459.08752	-773.08801	-134.40247	501.68039	-758.21661	-137.85957	558.04041	-942.20062	22.46724	387.65265	-781.62274	-127.11765	333.29086	-818.81238	127.08761	232.42404	-883.97418	104.88699	210.26016	-843.48602	135.08064	200.99866	-826.63770	146.92801	167.36377	-611.79858	-113.10036	209.78593	-650.58228	-114.47907	218.81847	-657.99731	-124.16991	257.26093	-636.89551	-109.66730	288.26050	-801.25696	186.22600	76.27975	-795.20374	105.10509	46.14623	-725.80371	179.69167	35.57689	-745.47711	163.74416	69.22184	-772.76807	200.31290	45.03497	-748.81030	136.68013	23.85752	-849.05933	106.55530	39.42978	-887.50781	96.96522	19.45440	-836.62616	204.87483	29.23414	-888.28876	202.76479	27.72556	-893.70880	148.07518	52.71651	-921.38330	94.29672	16.13383	-449.76566	-81.47797	132.76801	-495.59998	-31.88798	76.36409	-418.76749	-7.68330	130.58717	-447.92697	-18.64155	143.42754	-412.49652	-54.17788	126.39925	-447.56671	-2.38920	98.39336	-515.47937	-79.64977	59.00496	-424.74991	-118.95068	77.81052	-441.27933	-161.43288	54.97991	-509.36829	-136.16035	66.42056	-729.17859	208.79892	1222.33813	-669.38092	-132.98846	1253.59741	-670.15857	54.93691	1299.29700	-811.85577	30.01914	1236.64612	-831.93506	15.96340	1182.74426 
